<svg xmlns="http://www.w3.org/2000/svg" width="48.485" height="10.886" viewBox="0 0 48.485 10.886">
  <g id="Group_891" data-name="Group 891" transform="translate(-39.038 -708.9)">
    <g id="Group_294" data-name="Group 294" transform="translate(39.038 710.177)">
      <path id="Path_663" data-name="Path 663" d="M39.619,721.729c10.782-1.886,21.614-3.177,32.48-4.461,3.108-.367,6.215-.75,9.324-1.111a1.229,1.229,0,0,0,1.191-1.191,1.2,1.2,0,0,0-1.191-1.191c-11,1.123-21.863,3.028-32.7,5.167-3.119.615-6.237,1.237-9.347,1.891-.589.124-.334,1,.247.895Z" transform="translate(-39.038 -713.771)" fill="#707070"/>
    </g>
    <g id="Group_295" data-name="Group 295" transform="translate(61.851 708.9)">
      <path id="Path_664" data-name="Path 664" d="M126.567,710.646a186.856,186.856,0,0,0,24.449-.254l-.2-1.462c-3.994,1.573-7.958,3.222-11.931,4.846-1.868.763-3.759,1.485-5.606,2.3-1.314.579-2.81,1.466-2.884,3.051-.034.736.918.863,1.282.347a7.272,7.272,0,0,1,3.578-2.416l5.422-2.263c3.575-1.493,7.157-2.966,10.712-4.5a.749.749,0,0,0-.376-1.387,180.057,180.057,0,0,1-24.449.737c-.649-.024-.643.969,0,1.005Z" transform="translate(-126.083 -708.9)" fill="#707070"/>
    </g>
  </g>
</svg>
